<?xml version="1.0" standalone="no"?>
<!DOCTYPE svg PUBLIC "-//W3C//DTD SVG 20010904//EN"
 "http://www.w3.org/TR/2001/REC-SVG-20010904/DTD/svg10.dtd">
<svg version="1.0" xmlns="http://www.w3.org/2000/svg"
 width="32.000000pt" height="32.000000pt" viewBox="0 0 32.000000 32.000000"
 preserveAspectRatio="xMidYMid meet">

<g transform="translate(0.000000,32.000000) scale(0.100000,-0.100000)"
fill="#000000" stroke="none">
<path d="M0 160 l0 -160 160 0 160 0 0 160 0 160 -160 0 -160 0 0 -160z m250
71 c0 -13 -8 -21 -22 -23 -31 -4 -39 -48 -9 -48 14 0 21 -6 21 -20 0 -13 -7
-20 -20 -20 -17 0 -20 -7 -20 -45 0 -41 -2 -45 -25 -45 -23 0 -25 4 -25 45 0
33 -4 45 -15 45 -19 0 -20 29 -1 36 7 3 16 23 20 44 7 42 15 48 64 49 25 1 32
-3 32 -18z"/>
</g>
</svg>
