<?xml version="1.0" standalone="no"?>
<!DOCTYPE svg PUBLIC "-//W3C//DTD SVG 20010904//EN"
 "http://www.w3.org/TR/2001/REC-SVG-20010904/DTD/svg10.dtd">
<svg version="1.0" xmlns="http://www.w3.org/2000/svg"
 width="32.000000pt" height="32.000000pt" viewBox="0 0 32.000000 32.000000"
 preserveAspectRatio="xMidYMid meet">

<g transform="translate(0.000000,32.000000) scale(0.100000,-0.100000)"
fill="#000000" stroke="none">
<path d="M0 160 l0 -160 160 0 160 0 0 160 0 160 -160 0 -160 0 0 -160z m75
95 c0 -14 -6 -25 -12 -25 -7 0 -13 11 -13 25 0 14 6 25 13 25 6 0 12 -11 12
-25z m75 -29 c0 -2 -7 -7 -16 -10 -8 -3 -12 -2 -9 4 6 10 25 14 25 6z m139
-80 c-7 -76 -12 -84 -55 -102 -74 -31 -188 -9 -198 39 -10 46 -11 126 -2 117
14 -14 50 -12 64 2 9 9 12 9 12 1 0 -7 -4 -15 -10 -18 -27 -16 3 -115 40 -135
30 -16 38 -12 71 33 32 45 34 84 5 116 -13 14 -10 16 33 13 l47 -4 -7 -62z
m-212 58 c-3 -3 -12 -4 -19 -1 -8 3 -5 6 6 6 11 1 17 -2 13 -5z"/>
</g>
</svg>
