<?xml version="1.0" standalone="no"?>
<!DOCTYPE svg PUBLIC "-//W3C//DTD SVG 20010904//EN"
 "http://www.w3.org/TR/2001/REC-SVG-20010904/DTD/svg10.dtd">
<svg version="1.0" xmlns="http://www.w3.org/2000/svg"
 width="32.000000pt" height="32.000000pt" viewBox="0 0 32.000000 32.000000"
 preserveAspectRatio="xMidYMid meet">

<g transform="translate(0.000000,32.000000) scale(0.100000,-0.100000)"
fill="#000000" stroke="none">
<path d="M0 160 l0 -160 160 0 160 0 0 160 0 160 -160 0 -160 0 0 -160z m214
119 c6 -5 5 -18 -2 -34 -16 -34 -69 -36 -74 -3 -3 26 -32 35 -53 18 -11 -9
-15 -33 -15 -80 0 -53 -4 -70 -19 -84 -18 -17 -19 -14 -26 83 -4 55 -4 105 0
111 9 14 174 4 189 -11z m-84 -44 c0 -22 4 -25 39 -25 48 0 71 -8 71 -25 0
-17 -23 -25 -72 -25 -35 0 -39 -2 -36 -22 2 -19 10 -24 43 -26 83 -7 80 -52
-4 -52 -52 0 -63 6 -80 37 -12 23 -16 145 -4 156 3 4 15 7 25 7 13 0 18 -7 18
-25z"/>
</g>
</svg>
